name GIL06_free2EmgEnv.mot
datacolumns 51
datarows 7
range 0.11759254 0.12314810
endheader
                time	   rect_fem_l_emgRec	   rect_fem_l_emgEnv	   rect_fem_l_emgAve	   rect_fem_l_emgSDp	   rect_fem_l_emgSDm	   rect_fem_r_emgRec	   rect_fem_r_emgEnv	   rect_fem_r_emgAve	   rect_fem_r_emgSDp	   rect_fem_r_emgSDm	   med_hams_l_emgRec	   med_hams_l_emgEnv	   med_hams_l_emgAve	   med_hams_l_emgSDp	   med_hams_l_emgSDm	   med_hams_r_emgRec	   med_hams_r_emgEnv	   med_hams_r_emgAve	   med_hams_r_emgSDp	   med_hams_r_emgSDm	   lat_hams_l_emgRec	   lat_hams_l_emgEnv	   lat_hams_l_emgAve	   lat_hams_l_emgSDp	   lat_hams_l_emgSDm	   lat_hams_r_emgRec	   lat_hams_r_emgEnv	   lat_hams_r_emgAve	   lat_hams_r_emgSDp	   lat_hams_r_emgSDm	    tib_ant_l_emgRec	    tib_ant_l_emgEnv	    tib_ant_l_emgAve	    tib_ant_l_emgSDp	    tib_ant_l_emgSDm	    tib_ant_r_emgRec	    tib_ant_r_emgEnv	    tib_ant_r_emgAve	    tib_ant_r_emgSDp	    tib_ant_r_emgSDm	    gas_sol_l_emgRec	    gas_sol_l_emgEnv	    gas_sol_l_emgAve	    gas_sol_l_emgSDp	    gas_sol_l_emgSDm	    gas_sol_r_emgRec	    gas_sol_r_emgEnv	    gas_sol_r_emgAve	    gas_sol_r_emgSDp	    gas_sol_r_emgSDm	
          0.11759254	          0.04864364	          0.04324462	          0.29825878	          0.49905281	          0.09746476	          0.03055012	          0.03770540	          0.03928517	          0.08257451	         -0.00400416	          0.01541032	          0.10292658	          0.13731125	          0.19347587	          0.08114663	          0.02358484	          0.03370370	          0.01585731	          0.05176877	         -0.02005414	          0.00813026	          0.02014105	          0.03439485	          0.09645935	         -0.02766965	          0.03698276	          0.04711989	          0.02775380	          0.05984325	         -0.00433566	          0.17923124	          0.57110416	          0.25366816	          0.54378217	         -0.03644586	          0.01687342	          0.50965641	          0.40999341	          0.59091076	          0.22907606	          0.04396876	          0.07483200	          0.08137607	          0.09405939	          0.06869274	          0.00385365	          0.02659347	          0.02127963	          0.03619877	          0.00636049	
          0.11851846	          0.03108956	          0.04501925	          0.29426569	          0.49208829	          0.09644309	          0.01905586	          0.04221033	          0.03910496	          0.08230538	         -0.00409546	          0.01393874	          0.10081978	          0.13511895	          0.19089209	          0.07934580	          0.01223529	          0.03372742	          0.01611174	          0.05210692	         -0.01988344	          0.01355359	          0.02062412	          0.03367757	          0.09527722	         -0.02792207	          0.03106858	          0.04749604	          0.02774805	          0.05977858	         -0.00428249	          0.28228034	          0.57611736	          0.25456223	          0.54867101	         -0.03954655	          0.07575473	          0.51010179	          0.41339761	          0.59463954	          0.23215568	          0.02636459	          0.07611607	          0.08173431	          0.09425200	          0.06921662	          0.01131496	          0.02677243	          0.02128789	          0.03604242	          0.00653336	
          0.11944439	          0.04267987	          0.04684137	          0.29027712	          0.48513126	          0.09542298	          0.00713506	          0.04691226	          0.03893090	          0.08204264	         -0.00418084	          0.00402103	          0.09868120	          0.13296945	          0.18838148	          0.07755743	          0.00779355	          0.03375985	          0.01638519	          0.05246637	         -0.01969599	          0.01428390	          0.02106290	          0.03300832	          0.09413865	         -0.02812201	          0.02625969	          0.04786204	          0.02774968	          0.05972235	         -0.00422298	          0.36964722	          0.58116412	          0.25549224	          0.55357975	         -0.04259527	          0.03804484	          0.51041661	          0.41678157	          0.59832641	          0.23523673	         -0.00004277	          0.07745362	          0.08209923	          0.09444933	          0.06974912	          0.01276894	          0.02694188	          0.02130125	          0.03589668	          0.00670583	
          0.12037032	          0.04129830	          0.04870695	          0.28629377	          0.47818321	          0.09440434	          0.02749426	          0.05180718	          0.03876293	          0.08178617	         -0.00426031	          0.00407216	          0.09651374	          0.13086261	          0.18594377	          0.07578145	          0.01173417	          0.03380197	          0.01667763	          0.05284705	         -0.01949180	          0.01129591	          0.02145727	          0.03238619	          0.09304281	         -0.02827043	          0.01575004	          0.04821694	          0.02775874	          0.05967461	         -0.00415713	          0.30665021	          0.58625333	          0.25645652	          0.55850485	         -0.04559180	          0.13491106	          0.51061087	          0.42014489	          0.60197105	          0.23831873	          0.02541171	          0.07884462	          0.08247083	          0.09465159	          0.07029007	          0.00932613	          0.02710126	          0.02131966	          0.03576148	          0.00687784	
          0.12129624	          0.01832525	          0.05061194	          0.28231657	          0.47124584	          0.09338729	          0.00499065	          0.05689046	          0.03860098	          0.08153585	         -0.00433388	          0.00576196	          0.09432039	          0.12879837	          0.18357883	          0.07401790	          0.01202915	          0.03385485	          0.01698901	          0.05324889	         -0.01927088	          0.00742051	          0.02180728	          0.03181027	          0.09198889	         -0.02836836	          0.00033343	          0.04855982	          0.02777525	          0.05963540	         -0.00408490	          0.24264385	          0.59139407	          0.25745359	          0.56344289	         -0.04853570	          0.24012028	          0.51069483	          0.42348680	          0.60557264	          0.24140096	          0.02806742	          0.08028886	          0.08284910	          0.09485896	          0.07083924	          0.00708900	          0.02725004	          0.02134306	          0.03563677	          0.00704935	
          0.12222217	          0.05072041	          0.05255219	          0.27834597	          0.46432017	          0.09237178	          0.00918445	          0.06215688	          0.03844500	          0.08129159	         -0.00440158	          0.00987507	          0.09210420	          0.12677653	          0.18128631	          0.07226676	          0.02345580	          0.03391960	          0.01731931	          0.05367185	         -0.01903323	          0.00472845	          0.02211315	          0.03127958	          0.09097597	         -0.02841682	          0.01248652	          0.04888981	          0.02779925	          0.05960479	         -0.00400628	          0.16442121	          0.59659552	          0.25848162	          0.56839016	         -0.05142692	          0.21718583	          0.51067897	          0.42680699	          0.60913080	          0.24448317	          0.01919155	          0.08178602	          0.08323402	          0.09507162	          0.07139642	          0.00516641	          0.02738778	          0.02137141	          0.03552250	          0.00722032	
          0.12314810	          0.03954220	          0.05452355	          0.27438289	          0.45740804	          0.09135774	          0.01316565	          0.06760062	          0.03829491	          0.08105328	         -0.00446346	          0.01261944	          0.08986822	          0.12479702	          0.17906604	          0.07052801	          0.01775055	          0.03399738	          0.01766848	          0.05411584	         -0.01877889	          0.00062261	          0.02237524	          0.03079319	          0.09000322	         -0.02841684	          0.02269434	          0.04920604	          0.02783078	          0.05958280	         -0.00392124	          0.05519480	          0.60186691	          0.25953910	          0.57334325	         -0.05426505	          0.13139861	          0.51057396	          0.43010494	          0.61264507	          0.24756481	          0.00380573	          0.08333562	          0.08362558	          0.09528979	          0.07196138	          0.01430321	          0.02751405	          0.02140466	          0.03541862	          0.00739070	
